<?xml version="1.0" encoding="iso-8859-1"?>
<!-- Uploaded to: SVG Repo, www.svgrepo.com, Generator: SVG Repo Mixer Tools -->
<svg height="800px" width="800px" version="1.1" id="Layer_1" xmlns="http://www.w3.org/2000/svg" xmlns:xlink="http://www.w3.org/1999/xlink" 
	 viewBox="0 0 480 480" xml:space="preserve">
<path style="fill:#E07940;" d="M392,312h-40c-14.928,0-28.808-4.664-40.32-12.48c-19.344,18.128-44.968,28.4-71.68,28.4
	s-52.336-10.248-71.68-28.376C156.808,307.36,142.928,312,128,312H88c-39.704,0-72,32.112-72,71.808V480h144
	c-4.424,0-8-3.768-8-8.192v-32c0-4.416,3.576-7.808,8-7.808h8v-40h-8c-4.424,0-8-3.768-8-8.192v-32c0-4.416,3.576-7.808,8-7.808h48
	c4.424,0,8,3.392,8,7.808V432h8c4.424,0,8,3.392,8,7.808v32c0,4.424-3.576,8.192-8,8.192h32c-4.424,0-8-3.768-8-8.192v-32
	c0-4.416,3.576-7.808,8-7.808h8v-40h-8c-4.424,0-8-3.768-8-8.192v-32c0-4.416,3.576-7.808,8-7.808h48c4.424,0,8,3.392,8,7.808V432h8
	c4.424,0,8,3.392,8,7.808v32c0,4.424-3.576,8.192-8,8.192h144v-96.192C464,344.112,431.704,312,392,312z"/>
<path style="fill:#E5E8E8;" d="M301.648,222.608c16.992-16.68,26.352-38.984,26.352-62.8v-0.72c-24-3.824-40-23.544-40-47.28V104
	H184c-11.296,0-24-2.408-32-6.304v58.928c0,49.4,38.736,90.296,86.352,91.168C262.328,248.304,284.664,239.28,301.648,222.608z
	 M248,207.808c24,0,40-15.808,40-39.808h16c0,32-24,55.808-56,55.808V207.808z"/>
<path style="fill:#E07940;" d="M296,88c4.424,0,8,3.392,8,7.808v16c0,14.864,8,27.288,24,30.864V55.808C328,33.76,310.056,16,288,16
	h-40h-8H112c0,40,32.296,72,72,72H296z"/>
<path style="fill:#E5E8E8;" d="M299.536,288.968c-8.752-9.336-15.072-20.952-17.88-33.904c-12.976,5.68-27.056,8.744-41.64,8.744
	c-0.656,0-1.312,0-1.968-0.016c-14.056-0.256-27.448-3.448-39.648-9c-2.776,13.056-9.136,24.776-17.944,34.176
	c16.24,14.648,37.472,22.912,59.536,22.912C262.072,311.88,283.296,303.616,299.536,288.968z"/>
<g>
	<path style="fill:#9CD9F1;" d="M296,439.808V360h-32v16h8c4.424,0,8,3.392,8,7.808v56c0,4.424-3.576,8.192-8,8.192h-8v16h48v-16h-8
		C299.576,448,296,444.232,296,439.808z"/>
	<path style="fill:#9CD9F1;" d="M200,439.808V360h-32v16h8c4.424,0,8,3.392,8,7.808v56c0,4.424-3.576,8.192-8,8.192h-8v16h48v-16h-8
		C203.576,448,200,444.232,200,439.808z"/>
</g>
<g>
	<path style="fill:#334C5B;" d="M392,296h-40c-28.392,0-51.872-21.36-55.472-48.792c5.8-3.768,11.272-8.176,16.328-13.136
		c20.08-19.72,31.144-46.12,31.144-74.264v-104C344,24.928,318.872,0,288,0h-40h-8H104c-4.424,0-8,3.392-8,7.808v8
		c0,30.816,16,57.936,40,73.664v67.16c0,37.384,19.04,70.64,47.576,89.848C180.312,274.264,156.648,296,128,296H88
		c-48.52,0-88,39.288-88,87.808V480h8h8v-96.192C16,344.112,48.296,312,88,312h40c14.928,0,28.808-4.664,40.32-12.48
		c19.344,18.128,44.968,28.4,71.68,28.4s52.336-10.248,71.68-28.376C323.192,307.36,337.072,312,352,312h40
		c39.704,0,72,32.112,72,71.808V480h8h8v-96.192C480,335.288,440.52,296,392,296z M112,16h128h8h40c22.056,0,40,17.76,40,39.808
		v86.864c-16-3.576-24-16-24-30.864v-16c0-4.416-3.576-7.808-8-7.808H184C144.296,88,112,56,112,16z M152,156.624V97.696
		c8,3.896,20.704,6.304,32,6.304h104v7.808c0,23.736,16,43.448,40,47.28v0.72c0,23.816-9.36,46.112-26.352,62.8
		c-16.984,16.672-39.32,25.696-63.296,25.184C190.736,246.928,152,206.024,152,156.624z M198.408,254.792
		c12.192,5.552,25.592,8.744,39.648,9c0.656,0.016,1.312,0.016,1.968,0.016c14.584,0,28.664-3.064,41.64-8.744
		c2.808,12.944,9.128,24.568,17.88,33.904c-16.24,14.648-37.472,22.912-59.536,22.912c-22.072,0-43.296-8.264-59.536-22.912
		C189.272,279.568,195.632,267.848,198.408,254.792z"/>
	<path style="fill:#334C5B;" d="M304,168h-16c0,24-16,39.808-40,39.808v16C280,223.808,304,200,304,168z"/>
	<path style="fill:#334C5B;" d="M232,471.808v-32c0-4.416-3.576-7.808-8-7.808h-8v-80.192c0-4.416-3.576-7.808-8-7.808h-48
		c-4.424,0-8,3.392-8,7.808v32c0,4.424,3.576,8.192,8,8.192h8v40h-8c-4.424,0-8,3.392-8,7.808v32c0,4.424,3.576,8.192,8,8.192h64
		C228.424,480,232,476.232,232,471.808z M216,464h-48v-16h8c4.424,0,8-3.768,8-8.192v-56c0-4.416-3.576-7.808-8-7.808h-8v-16h32
		v79.808c0,4.424,3.576,8.192,8,8.192h8V464z"/>
	<path style="fill:#334C5B;" d="M328,471.808v-32c0-4.416-3.576-7.808-8-7.808h-8v-80.192c0-4.416-3.576-7.808-8-7.808h-48
		c-4.424,0-8,3.392-8,7.808v32c0,4.424,3.576,8.192,8,8.192h8v40h-8c-4.424,0-8,3.392-8,7.808v32c0,4.424,3.576,8.192,8,8.192h64
		C324.424,480,328,476.232,328,471.808z M312,464h-48v-16h8c4.424,0,8-3.768,8-8.192v-56c0-4.416-3.576-7.808-8-7.808h-8v-16h32
		v79.808c0,4.424,3.576,8.192,8,8.192h8V464z"/>
</g>
</svg>